<?xml version="1.0" standalone="no"?>
<!DOCTYPE svg PUBLIC "-//W3C//DTD SVG 20010904//EN"
 "http://www.w3.org/TR/2001/REC-SVG-20010904/DTD/svg10.dtd">
<svg version="1.0" xmlns="http://www.w3.org/2000/svg"
 width="600.000000pt" height="600.000000pt" viewBox="0 0 600.000000 600.000000"
 preserveAspectRatio="xMidYMid meet">

<g transform="translate(0.000000,600.000000) scale(0.100000,-0.100000)"
fill="#fbbf24" stroke="none">
<path d="M2209 4941 c-43 -43 -38 -70 26 -142 94 -105 109 -220 45 -337 -69
-128 -91 -184 -102 -267 -9 -69 -8 -96 6 -157 20 -88 66 -172 109 -198 37 -23
63 -18 95 16 31 35 29 88 -9 169 -28 59 -31 74 -27 134 4 57 13 83 62 176 75
144 90 198 83 298 -7 103 -56 207 -133 284 -44 45 -59 53 -89 53 -27 0 -44 -8
-66 -29z"/>
<path d="M2792 4963 c-18 -7 -42 -57 -42 -87 0 -16 19 -47 54 -85 62 -71 80
-122 74 -214 -3 -53 -11 -75 -51 -143 -56 -95 -75 -148 -88 -232 -18 -122 31
-286 102 -346 47 -40 99 -34 124 15 22 41 19 65 -17 138 -28 56 -33 76 -33
138 1 68 4 78 68 205 76 148 89 205 75 311 -18 135 -142 308 -220 306 -18 0
-39 -3 -46 -6z"/>
<path d="M3384 4530 c-27 -11 -54 -48 -54 -75 0 -11 -16 -53 -35 -93 -55 -115
-68 -173 -62 -270 4 -66 11 -96 36 -147 52 -104 110 -137 180 -100 54 27 55
73 4 146 -33 48 -38 62 -41 126 -4 67 -1 77 38 163 23 50 44 108 47 129 7 49
-19 108 -52 121 -30 12 -33 12 -61 0z"/>
<path d="M2485 3694 c-447 -34 -550 -48 -745 -95 -142 -35 -230 -73 -278 -120
-66 -65 -67 -70 -66 -324 2 -239 17 -402 55 -590 57 -284 205 -577 416 -825
109 -128 113 -135 113 -205 0 -73 32 -148 81 -189 84 -72 285 -141 483 -167
140 -18 517 -7 636 19 170 37 281 85 355 153 54 50 75 93 75 156 0 78 15 110
89 189 38 41 94 107 124 147 l54 72 53 -4 c167 -11 473 94 646 222 84 62 202
184 243 252 156 258 137 582 -46 756 -66 63 -111 89 -198 114 -79 23 -247 17
-322 -12 -29 -12 -54 -18 -57 -15 -4 3 -6 33 -6 66 0 80 -13 123 -49 167 -78
94 -372 174 -791 214 -155 15 -749 28 -865 19z m915 -209 c332 -39 594 -105
607 -151 13 -42 -255 -121 -520 -155 -53 -7 -101 -17 -105 -23 -5 -6 -18 -36
-30 -66 -11 -30 -50 -125 -86 -210 -36 -85 -63 -156 -60 -159 2 -3 84 -6 182
-8 165 -3 178 -5 195 -24 9 -12 17 -36 17 -55 0 -39 -93 -159 -459 -593 -113
-134 -237 -282 -275 -330 -221 -276 -275 -321 -383 -321 -46 0 -68 5 -94 23
-47 31 -81 100 -76 152 2 22 54 153 116 290 62 138 115 257 118 266 4 15 -16
17 -189 21 -172 3 -197 6 -228 24 -46 27 -62 59 -57 116 5 54 26 87 179 271
57 68 189 227 295 354 l191 231 -136 6 c-334 16 -572 41 -757 80 -141 30 -259
75 -263 100 -5 23 5 29 88 60 145 54 366 90 715 116 192 14 856 4 1015 -15z
m1165 -474 c88 -40 135 -133 135 -268 0 -202 -127 -367 -378 -493 -109 -54
-225 -92 -272 -88 l-38 3 33 86 c65 165 118 409 132 603 6 83 9 93 34 117 39
37 119 57 224 58 67 0 100 -4 130 -18z"/>
<path d="M3097 3243 c-62 -71 -137 -157 -166 -193 -30 -36 -73 -87 -96 -115
-78 -91 -175 -208 -316 -380 -196 -238 -199 -242 -199 -254 0 -8 69 -11 215
-11 120 0 215 -4 215 -9 0 -8 -41 -108 -80 -196 -10 -22 -36 -83 -58 -135 -22
-52 -66 -155 -97 -228 -31 -74 -55 -141 -53 -150 2 -9 14 -19 27 -20 35 -5 55
16 324 338 11 14 59 70 107 125 48 55 119 140 159 189 40 49 125 145 189 213
64 68 118 130 120 138 3 13 -27 15 -206 15 -115 0 -211 3 -214 6 -7 6 33 96
187 429 131 283 141 309 127 340 -9 18 -19 25 -41 25 -25 0 -46 -19 -144 -127z"/>
</g>
</svg>
